# xmcd
#
# Track frame offsets:
#	150
#	15400
#	31158
#	44873
#	62018
#	78317
#	92675
#	108775
#	121490
#	134713
#	151923
#	168180
#	186693
#	202410
#
# Disc length: 2914
#
# Revision: 1
# Processed by: cddbd v1.5.1PL0 Copyright (c) Steve Scherf et al.
# Submitted via: ExactAudioCopy v0.90b4
# Normalized: r0:DSETVAR1
#
DISCID=c20b600e
DTITLE=Various Artist - Die Nr. 1 Hits Schlager CD 1
DYEAR=1998
DGENRE=National Folk
TTITLE0=Petra Frey - Weil du so zärtlich zu mir bist
TTITLE1=Die Paldauer - Komm zu mir
TTITLE2=Andy Borg - Es bleibt so viel
TTITLE3=Uta Bresan - Sehnsucht kannst du nicht verbieten
TTITLE4=Peggy March - Wir werden uns erkennen
TTITLE5=Ireen Sheer - Heute Nacht bist du da
TTITLE6=Andreas - Liebst du mich
TTITLE7=Bianca and Ray - Solo Con Te
TTITLE8=Atlantis - Ich brauch keinen Engel
TTITLE9=Rossana Rocci - Jetzt bist du da
TTITLE10=Linda Feller - Könnt' ich noch einmal leben
TTITLE11=Wind - Denn dich zu lieben
TTITLE12=Wolfgang Herrmann - Denkst du noch an Früher
TTITLE13=Bamboo - Offen fahr'n
EXTD=
EXTT0=
EXTT1=
EXTT2=
EXTT3=
EXTT4=
EXTT5=
EXTT6=
EXTT7=
EXTT8=
EXTT9=
EXTT10=
EXTT11=
EXTT12=
EXTT13=
PLAYORDER=
